<svg xmlns="http://www.w3.org/2000/svg" viewBox="0 0 600 400" aria-labelledby="accessibility-hero-title">
  <title id="accessibility-hero-title">Люди с инвалидностью используют цифровые технологии</title>
  
  <defs>
    <!-- Градиент для плавного перехода -->
    <linearGradient id="fadeToTransparent" x1="0%" y1="0%" x2="100%" y2="0%">
      <stop offset="0%" style="stop-color:white;stop-opacity:1" />
      <stop offset="50%" style="stop-color:white;stop-opacity:0.8" />
      <stop offset="100%" style="stop-color:white;stop-opacity:0" />
    </linearGradient>
    
    <!-- Градиенты для фигур -->
    <linearGradient id="personGradient1" x1="0%" y1="0%" x2="0%" y2="100%">
      <stop offset="0%" style="stop-color:#4F46E5;stop-opacity:0.8" />
      <stop offset="100%" style="stop-color:#7C3AED;stop-opacity:0.6" />
    </linearGradient>
    
    <linearGradient id="personGradient2" x1="0%" y1="0%" x2="0%" y2="100%">
      <stop offset="0%" style="stop-color:#06B6D4;stop-opacity:0.8" />
      <stop offset="100%" style="stop-color:#0891B2;stop-opacity:0.6" />
    </linearGradient>
    
    <linearGradient id="techGradient" x1="0%" y1="0%" x2="0%" y2="100%">
      <stop offset="0%" style="stop-color:#10B981;stop-opacity:0.7" />
      <stop offset="100%" style="stop-color:#059669;stop-opacity:0.5" />
    </linearGradient>
  </defs>
  
  <!-- Основной фон с маской для плавного перехода -->
  <rect width="600" height="400" fill="url(#fadeToTransparent)"/>
  
  <!-- Человек в инвалидной коляске с ноутбуком -->
  <g transform="translate(350, 120)">
    <!-- Инвалидная коляска -->
    <circle cx="25" cy="85" r="12" fill="none" stroke="url(#personGradient1)" stroke-width="3"/>
    <circle cx="65" cy="85" r="12" fill="none" stroke="url(#personGradient1)" stroke-width="3"/>
    <rect x="25" y="65" width="40" height="8" fill="url(#personGradient1)" rx="4"/>
    <rect x="30" y="50" width="30" height="25" fill="url(#personGradient1)" rx="5" opacity="0.8"/>
    
    <!-- Человек -->
    <circle cx="45" cy="25" r="15" fill="url(#personGradient1)"/>
    <rect x="35" y="40" width="20" height="30" fill="url(#personGradient1)" rx="3"/>
    
    <!-- Ноутбук -->
    <rect x="25" y="55" width="25" height="15" fill="url(#techGradient)" rx="2"/>
    <rect x="27" y="57" width="21" height="11" fill="#E5E7EB" rx="1"/>
    <!-- Экран с доступным контентом -->
    <rect x="29" y="59" width="17" height="7" fill="#3B82F6" opacity="0.3"/>
    <rect x="30" y="60" width="6" height="1" fill="#10B981"/>
    <rect x="30" y="62" width="8" height="1" fill="#10B981"/>
    <rect x="30" y="64" width="4" height="1" fill="#10B981"/>
  </g>
  
  <!-- Человек с тростью и смартфоном -->
  <g transform="translate(480, 140)">
    <!-- Человек -->
    <circle cx="20" cy="20" r="12" fill="url(#personGradient2)"/>
    <rect x="12" y="32" width="16" height="25" fill="url(#personGradient2)" rx="3"/>
    <rect x="8" y="40" width="8" height="20" fill="url(#personGradient2)" rx="2"/>
    <rect x="24" y="40" width="8" height="20" fill="url(#personGradient2)" rx="2"/>
    
    <!-- Трость -->
    <line x1="5" y1="45" x2="5" y2="75" stroke="url(#personGradient2)" stroke-width="2" stroke-linecap="round"/>
    
    <!-- Смартфон -->
    <rect x="25" y="35" width="8" height="12" fill="url(#techGradient)" rx="2"/>
    <rect x="26" y="36" width="6" height="8" fill="#E5E7EB" rx="1"/>
    <!-- Доступное приложение на экране -->
    <rect x="27" y="37" width="4" height="2" fill="#3B82F6" opacity="0.5"/>
    <circle cx="29" cy="41" r="1" fill="#10B981"/>
    <rect x="27" y="43" width="4" height="0.5" fill="#10B981"/>
  </g>
  
  <!-- Человек с нарушением слуха использует планшет -->
  <g transform="translate(420, 200)">
    <!-- Человек -->
    <circle cx="25" cy="25" r="13" fill="url(#personGradient1)"/>
    <rect x="17" y="38" width="16" height="28" fill="url(#personGradient1)" rx="3"/>
    <rect x="13" y="45" width="10" height="22" fill="url(#personGradient1)" rx="2"/>
    <rect x="31" y="45" width="10" height="22" fill="url(#personGradient1)" rx="2"/>
    
    <!-- Слуховой аппарат -->
    <circle cx="35" cy="22" r="2" fill="url(#techGradient)"/>
    
    <!-- Планшет -->
    <rect x="15" y="50" width="20" height="15" fill="url(#techGradient)" rx="3"/>
    <rect x="17" y="52" width="16" height="11" fill="#E5E7EB" rx="2"/>
    <!-- Субтитры на экране -->
    <rect x="19" y="54" width="12" height="3" fill="#3B82F6" opacity="0.4"/>
    <rect x="19" y="58" width="8" height="1" fill="#10B981"/>
    <rect x="19" y="60" width="10" height="1" fill="#10B981"/>
  </g>
  
  <!-- Цифровые элементы доступности -->
  <g transform="translate(380, 80)" opacity="0.6">
    <!-- Иконка универсального доступа -->
    <circle cx="15" cy="15" r="12" fill="none" stroke="url(#techGradient)" stroke-width="2"/>
    <circle cx="15" cy="8" r="2" fill="url(#techGradient)"/>
    <path d="M10 12 Q15 14 20 12" fill="none" stroke="url(#techGradient)" stroke-width="2"/>
    <line x1="12" y1="16" x2="10" y2="25" stroke="url(#techGradient)" stroke-width="2"/>
    <line x1="18" y1="16" x2="20" y2="25" stroke="url(#techGradient)" stroke-width="2"/>
  </g>
  
  <!-- Плавающие точки для создания глубины -->
  <circle cx="520" cy="100" r="3" fill="url(#personGradient2)" opacity="0.4"/>
  <circle cx="460" cy="120" r="2" fill="url(#techGradient)" opacity="0.5"/>
  <circle cx="540" cy="180" r="2.5" fill="url(#personGradient1)" opacity="0.3"/>
  <circle cx="500" cy="250" r="4" fill="url(#personGradient2)" opacity="0.3"/>
  <circle cx="450" cy="280" r="2" fill="url(#techGradient)" opacity="0.4"/>
</svg>